PathFileType   4   (X/Y/Z)
DataRate	CameraRate	NumFrames	NumMarkers	Units	OrigDataRate	OrigDataStartFrame	OrigNumFrames
120.0	120.0	11	37	mm	120.0	20	155
Frame#	Time	midhip	hip_r	hip_l	knee_r	knee_l	ankle_r	ankle_l	midasis	asis_r	asis_l	psis_r	psis_l	epicondLat_r	epicondLat_l	epicondMed_r	epicondMed_l	malleolusLat_r	malleolusLat_l	malleolusMedv_r	malleolusMedv_l	neck	subclavicle_r	subclavicle_l	sternalnotch	xyphoidprocess	thighwand_r	thighwand_l	upperleg1_r	upperleg1_l	upperleg2_r	upperleg2_l	shankwand_r	shankwand_l	lowerleg1_r	lowerleg1_l	toe_r	toe_l
 	 	X1	Y1	Z1	X2	Y2	Z2	X3	Y3	Z3	X4	Y4	Z4	X5	Y5	Z5	X6	Y6	Z6	X7	Y7	Z7	X8	Y8	Z8	X9	Y9	Z9	X10	Y10	Z10	X11	Y11	Z11	X12	Y12	Z12	X13	Y13	Z13	X14	Y14	Z14	X15	Y15	Z15	X16	Y16	Z16	X17	Y17	Z17	X18	Y18	Z18	X19	Y19	Z19	X20	Y20	Z20	X21	Y21	Z21	X22	Y22	Z22	X23	Y23	Z23	X24	Y24	Z24	X25	Y25	Z25	X26	Y26	Z26	X27	Y27	Z27	X28	Y28	Z28	X29	Y29	Z29	X30	Y30	Z30	X31	Y31	Z31	X32	Y32	Z32	X33	Y33	Z33	X34	Y34	Z34	X35	Y35	Z35	X36	Y36	Z36	X37	Y37	Z37

	20	0.40000	802.772	843.732	-186.329	804.188	826.807	-123.445	794.856	821.594	-240.429	835.419	456.605	-149.029	916.479	468.156	-286.378	781.616	63.581	-178.014	657.446	172.979	-282.938	858.761	904.673	-184.266	858.273	907.942	-83.694	859.249	901.403	-284.837	702.071	933.342	-163.037	702.096	930.241	-217.838	844.471	453.625	-94.861	924.203	477.717	-339.474	824.018	454.757	-191.778	916.112	448.916	-237.774	773.088	61.982	-140.505	657.149	172.791	-321.437	801.040	78.350	-205.979	683.295	171.418	-259.782	744.405	1345.113	-173.322	844.365	1271.581	-124.827	841.009	1271.008	-231.752	827.769	1282.391	-183.035	879.850	1114.875	-182.752	958.436	639.719	-137.964	995.749	662.845	-246.773	883.865	679.799	-85.660	917.747	687.646	-306.785	882.736	594.409	-90.408	944.514	603.984	-308.361	786.377	175.200	-61.399	704.648	289.739	-381.661	790.271	185.507	-102.280	719.945	284.374	-341.660	895.258	39.299	-143.354	737.731	80.876	-308.174
	21	0.40833	807.298	843.850	-186.148	808.629	827.030	-122.960	799.054	822.089	-239.936	837.029	456.601	-148.961	924.901	469.854	-285.021	781.727	63.644	-178.039	673.123	168.161	-281.891	863.334	904.846	-183.725	863.051	907.908	-83.127	863.617	901.783	-284.323	706.994	933.883	-162.810	707.090	930.928	-217.475	845.905	453.478	-94.772	932.583	479.396	-338.126	825.740	454.934	-191.902	924.015	450.666	-236.742	773.096	62.085	-140.551	672.717	168.101	-320.389	801.105	78.389	-206.006	699.036	167.120	-258.723	749.782	1345.507	-172.234	849.831	1271.981	-123.953	846.098	1271.410	-230.948	832.979	1282.752	-182.196	885.054	1115.262	-182.043	961.484	638.604	-137.313	1001.774	665.273	-245.760	886.968	679.395	-85.297	923.834	689.283	-306.035	885.150	593.981	-90.133	951.302	605.927	-307.420	786.639	175.309	-61.473	717.118	286.375	-380.306	790.615	185.633	-102.384	732.644	281.244	-340.305	895.273	39.303	-143.300	756.550	79.331	-308.386
	22	0.41667	811.989	844.176	-185.995	813.102	827.222	-122.554	803.365	822.579	-239.530	838.639	456.573	-148.907	933.107	471.521	-283.610	781.853	63.703	-178.068	689.120	163.118	-280.922	867.979	905.002	-183.210	867.831	907.835	-82.596	868.126	902.169	-283.824	711.903	934.425	-162.602	712.082	931.616	-217.129	847.361	453.319	-94.701	940.754	481.017	-336.729	827.575	454.970	-192.000	932.016	452.314	-235.700	773.114	62.185	-140.604	688.613	163.183	-319.419	801.253	78.397	-206.052	714.992	162.622	-257.826	755.112	1345.886	-171.305	855.176	1272.282	-123.180	851.151	1271.709	-230.201	838.173	1283.059	-181.388	890.068	1115.520	-181.374	964.500	637.487	-136.766	1007.694	667.596	-244.782	890.084	678.943	-85.065	929.752	690.809	-305.277	887.632	593.504	-89.942	957.991	607.772	-306.498	786.900	175.417	-61.561	729.739	282.764	-379.015	790.924	185.730	-102.488	745.471	277.864	-338.994	895.284	39.301	-143.246	775.592	77.664	-308.464
	23	0.42500	816.851	844.705	-185.810	817.614	827.379	-122.223	807.792	823.059	-239.204	840.239	456.519	-148.859	941.090	473.146	-282.155	781.996	63.759	-178.101	705.425	157.897	-280.044	872.697	905.138	-182.718	872.619	907.722	-82.099	872.775	902.555	-283.338	716.784	934.959	-162.399	717.069	932.295	-216.797	848.824	453.149	-94.638	948.716	482.573	-335.289	829.310	454.925	-191.972	939.831	453.939	-234.633	773.147	62.284	-140.661	704.839	158.077	-318.539	801.291	78.421	-206.118	731.202	157.963	-256.972	760.338	1346.253	-170.354	860.435	1272.501	-122.472	856.121	1271.905	-229.529	843.349	1283.302	-180.618	894.935	1115.672	-180.740	967.490	636.357	-136.304	1013.530	669.803	-243.815	893.231	678.412	-84.923	935.602	692.303	-304.574	890.123	593.053	-89.770	964.595	609.518	-305.593	787.161	175.516	-61.644	742.538	278.918	-377.817	791.237	185.807	-102.558	758.426	274.311	-337.766	895.286	39.293	-143.188	794.841	75.907	-308.385
	24	0.43333	821.611	845.123	-185.537	822.165	827.502	-121.950	812.315	823.518	-238.940	841.822	456.445	-148.813	948.843	474.716	-280.661	782.152	63.818	-178.135	722.022	152.551	-279.263	877.476	905.252	-182.249	877.418	907.572	-81.632	877.533	902.933	-282.865	721.628	935.473	-162.187	722.051	932.956	-216.477	850.282	452.967	-94.579	956.471	484.059	-333.810	831.210	454.438	-191.549	947.325	455.421	-233.552	773.193	62.385	-140.719	721.389	152.830	-317.757	801.232	78.470	-206.178	747.806	153.274	-256.101	765.596	1346.533	-169.387	865.765	1272.621	-121.769	860.998	1272.040	-228.920	848.505	1283.482	-179.896	899.759	1115.739	-180.248	970.456	635.203	-135.903	1019.271	671.881	-242.827	896.259	677.746	-85.001	941.310	693.653	-303.847	892.586	592.575	-89.567	970.979	611.084	-304.688	787.424	175.603	-61.713	755.538	274.854	-376.737	791.614	185.864	-102.590	771.571	270.595	-336.638	895.273	39.279	-143.124	814.278	74.094	-308.142
	25	0.44167	826.268	845.439	-185.166	826.752	827.591	-121.715	816.904	823.949	-238.717	843.386	456.359	-148.770	956.356	476.218	-279.132	782.317	63.885	-178.168	738.881	147.137	-278.582	882.293	905.343	-181.800	882.232	907.392	-81.193	882.355	903.294	-282.406	726.430	935.955	-161.961	727.027	933.586	-216.165	851.726	452.780	-94.524	964.018	485.469	-332.291	833.021	454.020	-191.186	954.362	456.726	-232.511	773.249	62.495	-140.777	738.246	147.493	-317.075	801.276	78.516	-206.211	764.541	148.542	-255.331	770.902	1346.779	-168.503	871.064	1272.676	-121.072	866.074	1272.148	-228.237	853.652	1283.612	-179.220	904.683	1115.764	-179.701	973.403	634.022	-135.540	1024.898	673.819	-241.783	899.276	677.101	-84.981	946.959	694.881	-303.016	895.032	592.015	-89.347	977.160	612.449	-303.746	787.688	175.681	-61.764	768.757	270.596	-375.790	792.060	185.905	-102.606	784.942	266.674	-335.631	895.249	39.263	-143.053	833.882	72.261	-307.733
	26	0.45000	830.935	845.772	-184.703	831.367	827.650	-121.500	821.524	824.346	-238.512	844.929	456.271	-148.732	963.623	477.634	-277.569	782.485	63.967	-178.203	755.970	141.712	-277.996	887.128	905.410	-181.370	887.058	907.192	-80.778	887.197	903.629	-281.962	731.195	936.396	-161.721	731.996	934.175	-215.860	853.148	452.592	-94.474	971.357	486.793	-330.734	834.354	454.452	-191.584	961.113	458.071	-231.102	773.313	62.620	-140.836	755.388	142.120	-316.490	801.374	78.564	-206.247	781.300	143.825	-254.651	776.143	1347.030	-167.700	876.334	1272.717	-120.415	871.049	1272.162	-227.692	858.796	1283.712	-178.597	909.486	1115.720	-179.143	976.335	632.809	-135.190	1030.398	675.612	-240.652	902.584	676.634	-84.535	952.532	696.071	-302.199	897.553	591.411	-89.218	983.246	613.691	-302.647	787.953	175.754	-61.800	782.206	266.175	-374.983	792.522	185.935	-102.623	798.408	262.641	-334.752	895.218	39.245	-142.980	853.627	70.439	-307.163
	27	0.45833	835.749	846.250	-184.174	836.005	827.682	-121.290	826.155	824.703	-238.310	846.454	456.186	-148.699	970.639	478.947	-275.978	782.652	64.065	-178.241	773.255	136.328	-277.499	891.962	905.455	-180.960	891.896	906.978	-80.388	892.028	903.931	-281.533	735.938	936.787	-161.472	736.956	934.710	-215.562	854.547	452.410	-94.429	978.490	488.019	-329.141	835.605	454.865	-191.916	967.672	459.386	-229.534	773.378	62.760	-140.898	772.787	136.768	-315.994	801.594	78.611	-206.300	798.175	139.146	-254.009	781.406	1347.251	-167.033	881.649	1272.723	-119.883	875.958	1272.169	-227.216	863.945	1283.790	-178.038	914.257	1115.653	-178.757	979.257	631.565	-134.836	1035.764	677.251	-239.410	905.959	676.121	-84.168	958.005	697.171	-301.332	900.070	590.821	-89.108	989.214	614.893	-301.431	788.217	175.826	-61.829	795.886	261.631	-374.311	792.912	185.956	-102.643	811.972	258.556	-334.029	895.190	39.228	-142.910	873.482	68.652	-306.443
	28	0.46667	840.651	846.765	-183.654	840.663	827.688	-121.080	830.793	825.016	-238.106	847.968	456.110	-148.668	977.410	480.143	-274.360	782.816	64.179	-178.286	790.707	131.033	-277.081	896.791	905.478	-180.569	896.740	906.757	-80.019	896.841	904.198	-281.119	740.676	937.125	-161.222	741.905	935.182	-215.272	855.926	452.236	-94.385	985.425	489.138	-327.512	837.083	454.662	-191.688	973.923	460.558	-228.194	773.443	62.917	-140.966	790.414	131.489	-315.577	801.966	78.650	-206.356	815.196	134.529	-253.421	786.709	1347.409	-166.437	886.920	1272.777	-119.403	881.061	1272.273	-226.671	869.108	1283.849	-177.545	919.264	1115.695	-178.364	982.177	630.290	-134.467	1040.994	678.727	-238.043	909.166	675.411	-84.195	963.465	698.167	-300.354	902.502	590.299	-88.962	995.047	616.105	-300.193	788.479	175.903	-61.859	809.786	257.012	-373.765	793.198	186.021	-102.663	825.765	254.393	-333.447	895.177	39.209	-142.848	893.412	66.920	-305.584
	29	0.47500	845.452	847.079	-183.219	845.339	827.671	-120.866	835.441	825.281	-237.896	849.479	456.044	-148.634	983.951	481.212	-272.718	782.979	64.305	-178.341	808.303	125.866	-276.731	901.614	905.478	-180.192	901.585	906.532	-79.668	901.643	904.425	-280.715	745.430	937.407	-160.976	746.842	935.580	-214.991	857.293	452.074	-94.336	992.178	490.140	-325.849	838.864	454.240	-191.353	980.160	461.713	-226.523	773.507	63.085	-141.045	808.239	126.332	-315.228	802.288	78.702	-206.386	832.288	130.131	-252.889	791.954	1347.524	-165.810	892.183	1272.862	-119.011	886.069	1272.362	-226.336	874.283	1283.884	-177.116	924.288	1115.760	-178.083	985.101	628.987	-134.075	1046.095	680.030	-236.553	912.278	674.680	-84.367	968.797	699.074	-299.318	904.947	589.832	-88.833	1000.836	617.219	-298.766	788.741	175.986	-61.896	823.885	252.368	-373.326	793.481	186.147	-102.682	839.738	250.197	-332.944	895.188	39.188	-142.800	913.383	65.259	-304.601
	30	0.48333	850.167	847.207	-182.859	850.027	827.626	-120.645	840.098	825.490	-237.677	850.994	455.985	-148.592	990.280	482.145	-271.060	783.145	64.437	-178.407	826.024	120.861	-276.433	906.428	905.452	-179.826	906.424	906.302	-79.332	906.433	904.601	-280.320	750.214	937.632	-160.739	751.767	935.897	-214.724	858.654	451.921	-94.280	998.761	491.018	-324.159	841.173	453.786	-190.897	986.351	462.684	-224.680	773.573	63.257	-141.135	826.230	121.341	-314.930	802.578	78.774	-206.401	849.491	125.977	-252.425	797.169	1347.608	-165.239	897.445	1272.898	-118.706	891.109	1272.355	-226.145	879.458	1283.886	-176.748	929.330	1115.750	-177.838	988.032	627.659	-133.655	1051.080	681.150	-234.952	915.358	674.115	-84.309	973.957	699.782	-298.163	907.626	589.377	-88.554	1006.499	618.127	-297.203	789.004	176.079	-61.942	838.152	247.754	-372.973	793.851	186.286	-102.710	853.788	246.002	-332.550	895.228	39.163	-142.767	933.360	63.686	-303.509
